<?xml version="1.0" encoding="utf-8"?>
<!-- Generator: Adobe Illustrator 21.1.0, SVG Export Plug-In . SVG Version: 6.00 Build 0)  -->
<svg version="1.1" id="Layer_1" xmlns="http://www.w3.org/2000/svg" xmlns:xlink="http://www.w3.org/1999/xlink" x="0px" y="0px"
	 viewBox="0 0 20 20" style="enable-background:new 0 0 20 20;" xml:space="preserve">
<style type="text/css">
	.st0{fill:#444;}
</style>
<g>
	<path class="st0" d="M8.5,16c0.8,0,1.5,0.7,1.5,1.5S9.3,19,8.5,19S7,18.3,7,17.5S7.7,16,8.5,16z"/>
	<path class="st0" d="M17.5,16c0.8,0,1.5,0.7,1.5,1.5S18.3,19,17.5,19S16,18.3,16,17.5S16.7,16,17.5,16z"/>
	<path class="st0" d="M0,2v2h3l5,10h12V6H6.1L4,2H0z M7.1,7.9H18V12H9.2L7.1,7.9z"/>
</g>
</svg>
