<?xml version="1.0" encoding="utf-8"?>
<!-- Generator: Adobe Illustrator 21.1.0, SVG Export Plug-In . SVG Version: 6.00 Build 0)  -->
<svg version="1.1" id="Layer_1" xmlns="http://www.w3.org/2000/svg" xmlns:xlink="http://www.w3.org/1999/xlink" x="0px" y="0px"
	 viewBox="0 0 18 18" style="enable-background:new 0 0 18 18;" xml:space="preserve">
<style type="text/css">
	.st0{fill:#444444;}
</style>
<g>
	<path class="st0" d="M7,18h2c0-0.1-2-1-2-1V18z"/>
	<polygon class="st0" points="3,18 6,18 5,16 	"/>
	<polygon class="st0" points="2,18 2,17 0,18 	"/>
	<path class="st0" d="M10,7C8.8,6.5,7,6,7,6S3.2,2.1,2.2,1.1c-0.9-0.9-1.5-1.4-2-1c-0.5,0.4,0.1,1.1,1,2C2.2,3.2,6,7,6,7
		s0.6,1.7,1,3L10,7z"/>
	<path class="st0" d="M11,7l-4,4c0.4,1.6,5,7,5,7l6-6C18,12,12.9,7.8,11,7z"/>
</g>
</svg>
