<svg width="20" height="20" viewBox="0 0 20 20" fill="none" xmlns="http://www.w3.org/2000/svg">
<rect width="20" height="20"/>
<path fill-rule="evenodd" clip-rule="evenodd" d="M1 0V19.6779H4.27194V17.5839C4.80681 18.3803 5.44198 18.9843 6.17743 19.396C6.92125 19.7987 7.67342 20 8.43394 20C9.98007 20 11.2922 19.3423 12.3703 18.0268C13.4568 16.7114 14 14.8367 14 12.4027C14 10.0492 13.4693 8.24609 12.4079 6.99329C11.3465 5.73154 10.0051 5.10067 8.3838 5.10067C6.89617 5.10067 5.60913 5.76286 4.52266 7.08725V0H1ZM5.14947 15.5168C4.71488 14.8098 4.49759 13.7181 4.49759 12.2416C4.49759 10.8098 4.77756 9.74497 5.33751 9.04698C5.89746 8.34004 6.59949 7.98658 7.44359 7.98658C8.3044 7.98658 9.01061 8.34899 9.5622 9.07383C10.1138 9.78971 10.3896 10.962 10.3896 12.5906C10.3896 14.1208 10.1138 15.2438 9.5622 15.9597C9.01896 16.6667 8.35873 17.0201 7.58148 17.0201C6.57023 17.0201 5.75956 16.519 5.14947 15.5168ZM17 20C18.1046 20 19 19.1046 19 18C19 16.8954 18.1046 16 17 16C15.8954 16 15 16.8954 15 18C15 19.1046 15.8954 20 17 20Z" fill="#FE5000"/>
</svg>
