<?xml version="1.0" encoding="utf-8"?>
<!-- Generator: Adobe Illustrator 21.1.0, SVG Export Plug-In . SVG Version: 6.00 Build 0)  -->
<svg version="1.1" id="Layer_1" xmlns="http://www.w3.org/2000/svg" xmlns:xlink="http://www.w3.org/1999/xlink" x="0px" y="0px"
	 viewBox="0 0 20 20" style="enable-background:new 0 0 20 20;" xml:space="preserve">
<style type="text/css">
	.st0{fill-rule:evenodd;clip-rule:evenodd;fill:#444;}
	.st1{fill:#444;}
</style>
<g>
	<path class="st0" d="M14.5,8.8c-1.4,0-2.5-0.5-3.5-1.1l-3,2L3.8,6.9L8,4l0,0l0.6-1C8.6,3,8.8,2.7,9,2.4l0,0L8,1.7L7,2.4l-6,4v8
		L8,19l7-4.6V8.8C14.8,8.8,14.7,8.8,14.5,8.8z M7,16l-4-2.7V8.7l4,2.7V16z M13,13.4L9,16v-4.7l4-2.7V13.4z"/>
	<g>
		<path class="st1" d="M14.5,2.5C15.3,2.5,16,3.2,16,4s-0.7,1.5-1.5,1.5C13.6,5.5,13,4.8,13,4S13.6,2.5,14.5,2.5z"/>
		<path class="st1" d="M14.5,1C11.8,1,10,4,10,4s1.8,3,4.5,3S19,4,19,4S17.3,1,14.5,1z M14.5,6.5C13.1,6.5,12,5.4,12,4
			s1.1-2.5,2.5-2.5S17,2.6,17,4S15.9,6.5,14.5,6.5z"/>
	</g>
</g>
</svg>
