<?xml version="1.0" encoding="utf-8"?>
<!-- Generator: Adobe Illustrator 21.1.0, SVG Export Plug-In . SVG Version: 6.00 Build 0)  -->
<svg version="1.1" id="Layer_1" xmlns="http://www.w3.org/2000/svg" xmlns:xlink="http://www.w3.org/1999/xlink" x="0px" y="0px"
	 viewBox="0 0 20 20" style="enable-background:new 0 0 20 20;" xml:space="preserve">
<style type="text/css">
	.st0{fill:#FE5000;}
</style>
<g>
	<path class="st0" d="M6,5h8c1.1,0,2,0.9,2,2h2c0-2.2-1.8-4-4-4H6C3.8,3,2,4.8,2,7l0,0h2C4,5.9,4.9,5,6,5z"/>
	<path class="st0" d="M17,8H3c-1.1,0-2,0.9-2,2v5c0,1.1,0.9,2,2,2h5l2-3l2,3h5c1.1,0,2-0.9,2-2v-5C19,8.9,18.1,8,17,8z M5.5,15
		C4.1,15,3,13.9,3,12.5C3,11.1,4.1,10,5.5,10S8,11.1,8,12.5C8,13.9,6.9,15,5.5,15z M14.5,15c-1.4,0-2.5-1.1-2.5-2.5
		c0-1.4,1.1-2.5,2.5-2.5s2.5,1.1,2.5,2.5C17,13.9,15.9,15,14.5,15z"/>
</g>
</svg>
