<svg width="135" height="32" viewBox="0 0 135 32" fill="none" xmlns="http://www.w3.org/2000/svg">
<path d="M52.8564 16.8117C54.8488 17.2587 56 18.6889 56 20.7175C56 23.3527 54.3247 25 51.0794 25H44V9H50.5995C53.84 9 55.5201 10.6004 55.5201 13.0713C55.5201 14.8828 54.5365 16.2485 52.8564 16.7659V16.8117ZM50.3602 11.0004H46V16H50.3602C52.1552 16 53.1197 15.0705 53.1197 13.4233C53.1209 11.8945 52.16 11.0004 50.3602 11.0004ZM46 18.0004V23.0007H50.7192C52.5142 23.0007 53.5995 22.2475 53.5995 20.4125C53.5995 18.7183 52.5225 18.0004 50.4799 18.0004H46Z" fill="#444444"/>
<path d="M59 25V9H61V25H59Z" fill="#444444"/>
<path d="M72.0476 21.2833H72.0953L77.015 9.00117H80V25H78V13H77.9524L72.7632 25H71.0963L66.0441 13H66V25H64V9H66.985L72.0476 21.2833Z" fill="#444444"/>
<path d="M85 18.9944V25H83V9H89.8571C93.1636 9 95 10.9944 95 13.8242C95 16.7654 93.1685 18.9944 89.8571 18.9944H85ZM85 17H89.6056C91.4371 17 92.5934 15.7822 92.5934 13.8289C92.5934 12.0175 91.442 11.005 89.6056 11.005H85V17Z" fill="#444444"/>
<path d="M100 9V23.005H108V25H98V9H100Z" fill="#444444"/>
<path d="M119 19.203V9H121V19.203C121 23.2611 118.812 25 115 25C111.165 25 109 23.2658 109 19.203V9H111V19.203C111 20.9373 111.587 23.1455 115.047 23.1455C118.341 23.1444 119 20.9419 119 19.203Z" fill="#444444"/>
<path d="M124 24.202L124.359 22.378C126.695 22.948 128.266 23.062 129.501 23.062C131.747 23.062 132.757 21.873 132.757 20.6155C132.757 18.7174 130.578 18.2603 128.939 17.8031C126.447 17.1397 124.224 15.7454 124.224 13.1154C124.224 10.1662 126.582 9 129.5 9C131.179 9 132.755 9.228 134.664 9.798L134.17 11.622C131.858 11.052 130.735 10.938 129.5 10.938C127.254 10.938 126.468 11.964 126.468 13.1793C126.468 14.9394 128.692 15.5573 130.398 15.9689C132.867 16.5389 135 17.7518 135 20.4274C135 23.5146 132.642 25 129.499 25C127.638 24.9997 125.787 24.731 124 24.202Z" fill="#444444"/>
<path fill-rule="evenodd" clip-rule="evenodd" d="M33 0H0V32H33V0ZM15.0002 7H17.9746L24 25H21.0268L16.3306 9.58272H16.2779L11.5301 25H9L15.0002 7Z" fill="#FE5000"/>
</svg>
