<svg width="18" height="18" viewBox="0 0 18 18" fill="none" xmlns="http://www.w3.org/2000/svg">
<path d="M16.0377 10.965L12.0419 14.9955L14.0047 16.9754L18.0005 12.9448L16.0377 10.965Z" fill="#444444"/>
<path d="M11.0291 18H13.0118L11.0291 16V18Z" fill="#444444"/>
<path d="M13.21 6.10001L13.3092 2.89999C13.3092 0.299994 13.21 0 10.6324 0L7.36097 0.100006C6.96442 0.200006 6.66701 0.300006 6.3696 0.600006L0.520471 6.5C-0.17349 7.2 -0.17349 8.19999 0.520471 8.89999L4.48596 12.9C5.17992 13.6 6.17132 13.6 6.86528 12.9L12.7143 7C13.0117 6.8 13.1108 6.50001 13.21 6.10001ZM11.6238 3.39999C11.6238 4.29999 10.8308 5.10001 9.93852 5.10001C9.04628 5.10001 8.25311 4.29999 8.25311 3.39999C8.25311 2.49999 9.04628 1.7 9.93852 1.7C10.8308 1.7 11.6238 2.49999 11.6238 3.39999Z" fill="#444444"/>
</svg>
