<?xml version="1.0" encoding="utf-8"?>
<!-- Generator: Adobe Illustrator 19.2.1, SVG Export Plug-In . SVG Version: 6.00 Build 0)  -->
<svg version="1.1" id="Layer_1" xmlns="http://www.w3.org/2000/svg" xmlns:xlink="http://www.w3.org/1999/xlink" x="0px" y="0px"
	 width="23px" height="17px" viewBox="0 0 23 17" style="enable-background:new 0 0 23 17;" xml:space="preserve">
<style type="text/css">
	.st0{fill:#444444;}
	.st1{fill:#E30A17;}
	.st2{fill:#FFFFFF;}
</style>
<rect class="st0" width="23" height="17"/>
<rect x="1" y="1" class="st1" width="21" height="15"/>
<text transform="matrix(1 0 0 1 -294 -76.11)" style="font-family:'ArialMT'; font-size:12px;"> </text>
<g>
	<path class="st2" d="M9.9,11.7c-1.7,0-3-1.3-3-3s1.3-3,3-3c1,0,1.9,0.5,2.5,1.3C11.7,5.7,10.5,4.9,9,4.9c-2.1,0-3.8,1.7-3.8,3.8
		s1.7,3.8,3.8,3.8c1.5,0,2.7-0.8,3.4-2.1C11.8,11.2,10.9,11.7,9.9,11.7z"/>
	<polygon class="st2" points="14.5,8.7 15.2,7.7 14,8 13.3,7.1 13.3,8.3 12.1,8.7 13.3,9.1 13.3,10.4 14.1,9.4 15.3,9.7 	"/>
</g>
</svg>
