<?xml version="1.0" encoding="utf-8"?>
<!-- Generator: Adobe Illustrator 21.1.0, SVG Export Plug-In . SVG Version: 6.00 Build 0)  -->
<svg version="1.1" id="Layer_1" xmlns="http://www.w3.org/2000/svg" xmlns:xlink="http://www.w3.org/1999/xlink" x="0px" y="0px"
	 width="23px" height="17px" viewBox="0 0 23 17" style="enable-background:new 0 0 23 17;" xml:space="preserve">
<style type="text/css">
	.st0{fill:#444444;}
	.st1{fill:#B22234;}
	.st2{fill:#FFFFFF;}
	.st3{fill:#3A4C96;}
</style>
<rect y="0" class="st0" width="23" height="17"/>
<text transform="matrix(1 0 0 1 -294 -76.11)" style="font-family:'ArialMT'; font-size:12px;"> </text>
<rect x="1" y="1.1" class="st1" width="21" height="15"/>
<rect x="1" y="2.2" class="st2" width="21" height="1.2"/>
<rect x="1" y="4.6" class="st2" width="21" height="1.2"/>
<rect x="1" y="6.9" class="st2" width="21" height="1.2"/>
<rect x="1" y="9.2" class="st2" width="21" height="1.2"/>
<rect x="1" y="11.5" class="st2" width="21" height="1.2"/>
<rect x="1" y="13.8" class="st2" width="21" height="1.2"/>
<rect x="1" y="1.1" class="st3" width="12" height="8.1"/>
<polygon class="st2" points="2.2,1.7 2.3,2 2.7,2 2.4,2.3 2.5,2.6 2.2,2.4 1.9,2.6 1.9,2.3 1.7,2 2,2 "/>
<polygon class="st2" points="4.1,1.7 4.3,2 4.6,2 4.4,2.3 4.4,2.6 4.1,2.4 3.8,2.6 3.9,2.3 3.6,2 4,2 "/>
<polygon class="st2" points="6.1,1.7 6.2,2 6.5,2 6.3,2.3 6.4,2.6 6.1,2.4 5.7,2.6 5.8,2.3 5.6,2 5.9,2 "/>
<polygon class="st2" points="8,1.7 8.1,2 8.5,2 8.2,2.3 8.3,2.6 8,2.4 7.7,2.6 7.7,2.3 7.5,2 7.8,2 "/>
<polygon class="st2" points="9.9,1.7 10.1,2 10.4,2 10.2,2.3 10.2,2.6 9.9,2.4 9.6,2.6 9.7,2.3 9.4,2 9.8,2 "/>
<polygon class="st2" points="11.8,1.7 12,2 12.3,2 12.1,2.3 12.1,2.6 11.8,2.4 11.5,2.6 11.6,2.3 11.3,2 11.7,2 "/>
<polygon class="st2" points="2.2,3.2 2.3,3.5 2.7,3.5 2.4,3.8 2.5,4.1 2.2,3.9 1.9,4.1 1.9,3.8 1.7,3.5 2,3.5 "/>
<polygon class="st2" points="4.1,3.2 4.3,3.5 4.6,3.5 4.4,3.8 4.4,4.1 4.1,3.9 3.8,4.1 3.9,3.8 3.6,3.5 4,3.5 "/>
<polygon class="st2" points="6.1,3.2 6.2,3.5 6.5,3.5 6.3,3.8 6.4,4.1 6.1,3.9 5.7,4.1 5.8,3.8 5.6,3.5 5.9,3.5 "/>
<polygon class="st2" points="8,3.2 8.1,3.5 8.5,3.5 8.2,3.8 8.3,4.1 8,3.9 7.7,4.1 7.7,3.8 7.5,3.5 7.8,3.5 "/>
<polygon class="st2" points="9.9,3.2 10.1,3.5 10.4,3.5 10.2,3.8 10.2,4.1 9.9,3.9 9.6,4.1 9.7,3.8 9.4,3.5 9.8,3.5 "/>
<polygon class="st2" points="11.8,3.2 12,3.5 12.3,3.5 12.1,3.8 12.1,4.1 11.8,3.9 11.5,4.1 11.6,3.8 11.3,3.5 11.7,3.5 "/>
<polygon class="st2" points="2.2,4.7 2.3,5 2.7,5 2.4,5.2 2.5,5.6 2.2,5.4 1.9,5.6 1.9,5.2 1.7,5 2,5 "/>
<polygon class="st2" points="4.1,4.7 4.3,5 4.6,5 4.4,5.2 4.4,5.6 4.1,5.4 3.8,5.6 3.9,5.2 3.6,5 4,5 "/>
<polygon class="st2" points="6.1,4.7 6.2,5 6.5,5 6.3,5.2 6.4,5.6 6.1,5.4 5.7,5.6 5.8,5.2 5.6,5 5.9,5 "/>
<polygon class="st2" points="8,4.7 8.1,5 8.5,5 8.2,5.2 8.3,5.6 8,5.4 7.7,5.6 7.7,5.2 7.5,5 7.8,5 "/>
<polygon class="st2" points="9.9,4.7 10.1,5 10.4,5 10.2,5.2 10.2,5.6 9.9,5.4 9.6,5.6 9.7,5.2 9.4,5 9.8,5 "/>
<polygon class="st2" points="11.8,4.7 12,5 12.3,5 12.1,5.2 12.1,5.6 11.8,5.4 11.5,5.6 11.6,5.2 11.3,5 11.7,5 "/>
<polygon class="st2" points="2.2,6.2 2.3,6.5 2.7,6.5 2.4,6.7 2.5,7 2.2,6.9 1.9,7 1.9,6.7 1.7,6.5 2,6.5 "/>
<polygon class="st2" points="4.1,6.2 4.3,6.5 4.6,6.5 4.4,6.7 4.4,7 4.1,6.9 3.8,7 3.9,6.7 3.6,6.5 4,6.5 "/>
<polygon class="st2" points="6.1,6.2 6.2,6.5 6.5,6.5 6.3,6.7 6.4,7 6.1,6.9 5.7,7 5.8,6.7 5.6,6.5 5.9,6.5 "/>
<polygon class="st2" points="8,6.2 8.1,6.5 8.5,6.5 8.2,6.7 8.3,7 8,6.9 7.7,7 7.7,6.7 7.5,6.5 7.8,6.5 "/>
<polygon class="st2" points="9.9,6.2 10.1,6.5 10.4,6.5 10.2,6.7 10.2,7 9.9,6.9 9.6,7 9.7,6.7 9.4,6.5 9.8,6.5 "/>
<polygon class="st2" points="11.8,6.2 12,6.5 12.3,6.5 12.1,6.7 12.1,7 11.8,6.9 11.5,7 11.6,6.7 11.3,6.5 11.7,6.5 "/>
<polygon class="st2" points="2.2,7.7 2.3,8 2.7,8 2.4,8.2 2.5,8.5 2.2,8.4 1.9,8.5 1.9,8.2 1.7,8 2,8 "/>
<polygon class="st2" points="4.1,7.7 4.3,8 4.6,8 4.4,8.2 4.4,8.5 4.1,8.4 3.8,8.5 3.9,8.2 3.6,8 4,8 "/>
<polygon class="st2" points="6.1,7.7 6.2,8 6.5,8 6.3,8.2 6.4,8.5 6.1,8.4 5.7,8.5 5.8,8.2 5.6,8 5.9,8 "/>
<polygon class="st2" points="8,7.7 8.1,8 8.5,8 8.2,8.2 8.3,8.5 8,8.4 7.7,8.5 7.7,8.2 7.5,8 7.8,8 "/>
<polygon class="st2" points="9.9,7.7 10.1,8 10.4,8 10.2,8.2 10.2,8.5 9.9,8.4 9.6,8.5 9.7,8.2 9.4,8 9.8,8 "/>
<polygon class="st2" points="11.8,7.7 12,8 12.3,8 12.1,8.2 12.1,8.5 11.8,8.4 11.5,8.5 11.6,8.2 11.3,8 11.7,8 "/>
<polygon class="st2" points="3.2,2.6 3.3,2.8 3.6,2.9 3.4,3.1 3.5,3.4 3.2,3.3 2.8,3.4 2.9,3.1 2.7,2.9 3,2.8 "/>
<polygon class="st2" points="5.1,2.6 5.2,2.8 5.6,2.9 5.3,3.1 5.4,3.4 5.1,3.3 4.8,3.4 4.8,3.1 4.6,2.9 4.9,2.8 "/>
<polygon class="st2" points="7,2.6 7.2,2.8 7.5,2.9 7.3,3.1 7.3,3.4 7,3.3 6.7,3.4 6.8,3.1 6.5,2.9 6.9,2.8 "/>
<polygon class="st2" points="8.9,2.6 9.1,2.8 9.4,2.9 9.2,3.1 9.3,3.4 8.9,3.3 8.6,3.4 8.7,3.1 8.5,2.9 8.8,2.8 "/>
<polygon class="st2" points="10.9,2.6 11,2.8 11.4,2.9 11.1,3.1 11.2,3.4 10.9,3.3 10.6,3.4 10.6,3.1 10.4,2.9 10.7,2.8 "/>
<polygon class="st2" points="3.2,4.1 3.3,4.3 3.6,4.4 3.4,4.6 3.5,4.9 3.2,4.8 2.8,4.9 2.9,4.6 2.7,4.4 3,4.3 "/>
<polygon class="st2" points="5.1,4.1 5.2,4.3 5.6,4.4 5.3,4.6 5.4,4.9 5.1,4.8 4.8,4.9 4.8,4.6 4.6,4.4 4.9,4.3 "/>
<polygon class="st2" points="7,4.1 7.2,4.3 7.5,4.4 7.3,4.6 7.3,4.9 7,4.8 6.7,4.9 6.8,4.6 6.5,4.4 6.9,4.3 "/>
<polygon class="st2" points="8.9,4.1 9.1,4.3 9.4,4.4 9.2,4.6 9.3,4.9 8.9,4.8 8.6,4.9 8.7,4.6 8.5,4.4 8.8,4.3 "/>
<polygon class="st2" points="10.9,4.1 11,4.3 11.4,4.4 11.1,4.6 11.2,4.9 10.9,4.8 10.6,4.9 10.6,4.6 10.4,4.4 10.7,4.3 "/>
<polygon class="st2" points="3.2,5.6 3.3,5.8 3.6,5.9 3.4,6.1 3.5,6.4 3.2,6.3 2.8,6.4 2.9,6.1 2.7,5.9 3,5.8 "/>
<polygon class="st2" points="5.1,5.6 5.2,5.8 5.6,5.9 5.3,6.1 5.4,6.4 5.1,6.3 4.8,6.4 4.8,6.1 4.6,5.9 4.9,5.8 "/>
<polygon class="st2" points="7,5.6 7.2,5.8 7.5,5.9 7.3,6.1 7.3,6.4 7,6.3 6.7,6.4 6.8,6.1 6.5,5.9 6.9,5.8 "/>
<polygon class="st2" points="8.9,5.6 9.1,5.8 9.4,5.9 9.2,6.1 9.3,6.4 8.9,6.3 8.6,6.4 8.7,6.1 8.5,5.9 8.8,5.8 "/>
<polygon class="st2" points="10.9,5.6 11,5.8 11.4,5.9 11.1,6.1 11.2,6.4 10.9,6.3 10.6,6.4 10.6,6.1 10.4,5.9 10.7,5.8 "/>
<polygon class="st2" points="3.2,7 3.3,7.3 3.6,7.4 3.4,7.6 3.5,7.9 3.2,7.8 2.8,7.9 2.9,7.6 2.7,7.4 3,7.3 "/>
<polygon class="st2" points="5.1,7 5.2,7.3 5.6,7.4 5.3,7.6 5.4,7.9 5.1,7.8 4.8,7.9 4.8,7.6 4.6,7.4 4.9,7.3 "/>
<polygon class="st2" points="7,7 7.2,7.3 7.5,7.4 7.3,7.6 7.3,7.9 7,7.8 6.7,7.9 6.8,7.6 6.5,7.4 6.9,7.3 "/>
<polygon class="st2" points="8.9,7 9.1,7.3 9.4,7.4 9.2,7.6 9.3,7.9 8.9,7.8 8.6,7.9 8.7,7.6 8.5,7.4 8.8,7.3 "/>
<polygon class="st2" points="10.9,7 11,7.3 11.4,7.4 11.1,7.6 11.2,7.9 10.9,7.8 10.6,7.9 10.6,7.6 10.4,7.4 10.7,7.3 "/>
</svg>
