<?xml version="1.0" encoding="utf-8"?>
<!-- Generator: Adobe Illustrator 21.1.0, SVG Export Plug-In . SVG Version: 6.00 Build 0)  -->
<svg version="1.1" id="Layer_1" xmlns="http://www.w3.org/2000/svg" xmlns:xlink="http://www.w3.org/1999/xlink" x="0px" y="0px"
	 viewBox="0 0 18 18" style="enable-background:new 0 0 18 18;" xml:space="preserve">
<style type="text/css">
	.st0{fill:#444444;}
</style>
<g id="Icons_27_">
	<path class="st0" d="M18,10.5v-3h-2.7c-0.2-0.7-0.4-1.3-0.8-1.9l1.9-1.9l-2.2-2.2l-1.9,1.9c-0.6-0.3-1.2-0.6-1.9-0.8V0H7.5v2.7
		C6.8,2.8,6.2,3.1,5.6,3.4L3.7,1.6L1.6,3.7l1.9,1.9C3.1,6.2,2.8,6.8,2.7,7.5H0v3.1h2.7c0.2,0.7,0.4,1.3,0.8,1.9l-1.9,1.9l2.2,2.2
		l1.9-1.9c0.6,0.3,1.2,0.6,1.9,0.8V18h3.1v-2.7c0.7-0.2,1.3-0.4,1.9-0.8l1.9,1.9l2.2-2.2l-1.9-1.9c0.3-0.6,0.6-1.2,0.8-1.9L18,10.5
		L18,10.5z M9,13c-2.2,0-4-1.8-4-4s1.8-4,4-4s4,1.8,4,4S11.2,13,9,13z"/>
</g>
</svg>
