<svg width="20" height="20" viewBox="0 0 20 20" fill="none" xmlns="http://www.w3.org/2000/svg">
<rect width="20" height="20"/>
<path fill-rule="evenodd" clip-rule="evenodd" d="M13.5216 6.98725C12.5 7.61277 11.2932 7.9742 10.0004 7.9742C8.70719 7.9742 7.50002 7.61251 6.4782 6.98657L3.38721 12.2413C5.47355 13.3456 6.89132 15.5103 6.89132 18C6.89132 18 6.89132 18 6.89132 18.0001H13.1093C13.1093 18 13.1093 18 13.1093 17.9999C13.1093 15.5107 14.5266 13.3463 16.6124 12.2417L13.5216 6.98725Z" fill="#FE5000"/>
<path fill-rule="evenodd" clip-rule="evenodd" d="M12.8551 5.85366C12.0298 6.36845 11.0506 6.66662 10.0003 6.66662C8.9499 6.66662 7.97044 6.36833 7.14509 5.85335L10 1L12.8551 5.85366ZM17.2794 13.375C15.5915 14.2527 14.4416 15.9946 14.4416 18H20L17.2794 13.375ZM5.55921 18C5.5592 15.9943 4.40906 14.2523 2.72081 13.3746L0 18H5.55921Z" fill="#FE5000"/>
</svg>
