<?xml version="1.0" encoding="utf-8"?>
<!-- Generator: Adobe Illustrator 21.1.0, SVG Export Plug-In . SVG Version: 6.00 Build 0)  -->
<svg version="1.1" id="Layer_1" xmlns="http://www.w3.org/2000/svg" xmlns:xlink="http://www.w3.org/1999/xlink" x="0px" y="0px"
	 viewBox="0 0 18 18" style="enable-background:new 0 0 18 18;" xml:space="preserve">
<style type="text/css">
	.st0{fill:#444444;}
</style>
<g>
	<path class="st0" d="M8.6,14L8.6,14L8.6,14c-0.6,0-1,0.1-1.3,0.3C7.1,14.6,7,14.9,7,15.2c0,0.4,0.1,0.6,0.4,0.9
		c0.3,0.2,0.7,0.3,1.3,0.3h0h0c0.6,0,1-0.1,1.3-0.3c0.3-0.2,0.4-0.5,0.4-0.9c0-0.4-0.1-0.6-0.4-0.9C9.6,14.1,9.2,14,8.6,14z"/>
	<path class="st0" d="M12.3,3.3C11.4,2.4,10.3,2,8.8,2c-0.7,0-1.4,0.1-2,0.3C6.1,2.5,5.2,2.8,4,3.4v1.9c0,0.6,0.1,1,0.3,1.2
		c0.2,0.2,0.5,0.4,0.8,0.4c0.3,0,0.6-0.1,0.8-0.4c0.2-0.2,0.3-0.6,0.3-1.2V4.9c0.2-0.1,0.4-0.2,0.6-0.3c0.6-0.2,1.2-0.3,1.9-0.3
		c0.6,0,1.1,0.1,1.5,0.3c0.1,0.1,0.3,0.2,0.4,0.3c0.4,0.4,0.7,0.9,0.7,1.4c0,0.4-0.2,0.8-0.6,1.2c-0.4,0.4-1.5,0.9-3.3,1.6v1.3
		c0,0.6,0.1,1,0.3,1.2C8,11.9,8.3,12,8.6,12c0.3,0,0.6-0.1,0.8-0.3c0.2-0.2,0.3-0.5,0.4-1c1.5-0.7,2.6-1.3,3.1-2
		c0.5-0.6,0.8-1.4,0.8-2.3C13.7,5.2,13.2,4.1,12.3,3.3z"/>
</g>
</svg>
