<svg id="Project_Gray" data-name="Project Gray" xmlns="http://www.w3.org/2000/svg" viewBox="0 0 18 18"><defs><style>.cls-1{fill:#444;}</style></defs><title>contact us</title><g id="Page-1"><g id="Social_icons" data-name="Social icons"><g id="Phone"><path id="Shape" class="cls-1" d="M6.48,3.08a.34.34,0,0,1,.35.16c.18.29.36.58.54.88s.38.7.58,1c.05.09.12.18.18.27l.16.26a.43.43,0,0,1-.06.54c-.22.22-.46.43-.69.64s-.39.35-.58.53a.39.39,0,0,0-.09.5c.15.28.3.57.47.85a8.1,8.1,0,0,0,2.42,2.58c.39.26.79.5,1.2.73s.53.18.83-.15l.82-.92a2,2,0,0,1,.22-.2.43.43,0,0,1,.51-.06l.15.08c.48.34,1,.58,1.52.87l.8.48a.37.37,0,0,1,.19.38,2.54,2.54,0,0,1-.38,1.34,1.86,1.86,0,0,1-.45.43,4.24,4.24,0,0,1-1.53.64,2.84,2.84,0,0,1-1.47-.08,12.36,12.36,0,0,1-2.67-1.1,11.71,11.71,0,0,1-2.09-1.59A12.6,12.6,0,0,1,5.3,9.63a10.5,10.5,0,0,1-.9-2A6.49,6.49,0,0,1,4,6.42,3,3,0,0,1,4.17,5a4.16,4.16,0,0,1,.59-1.18,1.49,1.49,0,0,1,.81-.57l.82-.19A.11.11,0,0,0,6.48,3.08Z"/></g></g></g><path class="cls-1" d="M9,0a9,9,0,1,0,6.13,15.59L15,15.48a4,4,0,0,1-1.17.46,2.6,2.6,0,0,1-1.35-.07l-.29-.09A7.5,7.5,0,1,1,16.5,9s0,1,.76,1S18,9,18,9A9,9,0,0,0,9,0Z"/></svg>