<?xml version="1.0" encoding="utf-8"?>
<!-- Generator: Adobe Illustrator 21.1.0, SVG Export Plug-In . SVG Version: 6.00 Build 0)  -->
<svg version="1.1" id="Layer_1" xmlns="http://www.w3.org/2000/svg" xmlns:xlink="http://www.w3.org/1999/xlink" x="0px" y="0px"
	 viewBox="0 0 18 18" style="enable-background:new 0 0 18 18;" xml:space="preserve">
<style type="text/css">
	.st0{fill:#444444;}
</style>
<path class="st0" d="M16.7,13.6c0,0,0-0.1,0.1-0.1c0.1-0.2,0.2-0.4,0.3-0.7v-0.1l0,0C17.7,11.6,18,10.3,18,9c0-5-4-9-9-9S0,4,0,9
	c0,1.1,0.2,2.2,0.6,3.2l0,0l0,0c0.1,0.2,0.2,0.5,0.3,0.7V13c0.1,0.2,0.2,0.5,0.4,0.7c0,0,0,0.1,0.1,0.1c0.1,0.2,0.3,0.4,0.4,0.6
	c0,0,0,0.1,0.1,0.1c0.2,0.2,0.3,0.4,0.5,0.6l0.1,0.1c0.2,0.2,0.3,0.3,0.5,0.5l0.1,0.1c0.2,0.2,0.4,0.3,0.5,0.4l0.1,0.1
	c0.2,0.1,0.4,0.2,0.6,0.4c0.1,0,0.1,0.1,0.2,0.1c0.2,0.1,0.4,0.2,0.6,0.3c0.1,0,0.1,0.1,0.2,0.1l0,0C6.4,17.7,7.7,18,9,18
	c3,0,5.6-1.5,7.3-3.7c0,0,0,0,0-0.1C16.5,14,16.6,13.8,16.7,13.6z M11.1,12.4c0,0-0.1,0-0.1,0.1c-0.2,0.1-0.4,0.2-0.6,0.3
	C10,12.9,9.5,13,9,13c-0.6,0-1.2-0.2-1.7-0.4c-0.2-0.1-0.4-0.2-0.6-0.3l0,0c-0.2-0.1-0.4-0.3-0.5-0.5l0,0c-0.2-0.2-0.3-0.4-0.4-0.6
	l0,0c-0.1-0.2-0.2-0.4-0.3-0.7C5.1,10,5,9.5,5,9c0-0.6,0.1-1.1,0.4-1.6l0,0c0.4-1,1.2-1.7,2.2-2.1l0,0C8,5.1,8.5,5,9,5
	c0.6,0,1.1,0.1,1.6,0.4l0,0c1,0.4,1.7,1.2,2.1,2.2l0,0C12.9,8,13,8.5,13,9c0,0.6-0.2,1.2-0.4,1.7c-0.1,0.2-0.2,0.4-0.3,0.6l-0.1,0.1
	c-0.1,0.2-0.3,0.3-0.4,0.5L11.7,12C11.5,12.1,11.3,12.3,11.1,12.4z M13.5,11.1C13.8,10.4,14,9.7,14,9c0-0.6-0.1-1.2-0.3-1.8l2.8-1.1
	C16.8,7.1,17,8,17,9c0,1.2-0.3,2.3-0.7,3.3L13.5,11.1z M12.3,1.7l-1.2,2.7C10.4,4.2,9.7,4,9,4C8.4,4,7.8,4.1,7.2,4.3l-1-2.8
	C7.1,1.2,8,1,9,1C10.2,1,11.3,1.3,12.3,1.7z M1,9c0-1.2,0.3-2.3,0.7-3.3l2.7,1.2C4.2,7.6,4,8.3,4,9c0,0.6,0.1,1.2,0.3,1.8l-2.8,1.1
	C1.2,10.9,1,10,1,9z M5.7,16.3l1.2-2.7C7.6,13.8,8.3,14,9,14c0.6,0,1.2-0.1,1.8-0.3l1.1,2.8C10.9,16.8,10,17,9,17
	C7.8,17,6.7,16.7,5.7,16.3z"/>
</svg>
