<?xml version="1.0" encoding="utf-8"?>
<!-- Generator: Adobe Illustrator 21.1.0, SVG Export Plug-In . SVG Version: 6.00 Build 0)  -->
<svg version="1.1" id="Layer_1" xmlns="http://www.w3.org/2000/svg" xmlns:xlink="http://www.w3.org/1999/xlink" x="0px" y="0px"
	 viewBox="0 0 20 20" style="enable-background:new 0 0 20 20;" xml:space="preserve">
<style type="text/css">
	.st0{fill:#FE5000;}
	.st1{fill:#FFFFFF;}
</style>
<g>
	<g>
		<path class="st0" d="M2.2,10c0,3.3,0,5.1,0,5.1s-1.1,1-1.6,1.6c-0.6,0.5-0.8,1.7,0,2.5l0,0c0.8,0.8,2,0.5,2.6,0
			c0.6-0.5,1.6-1.6,1.6-1.6s1.9,0,5.3,0s6.4-2.5,6.4-2.5L4.8,3.8C4.8,3.8,2.2,6.6,2.2,10z"/>
		<path class="st0" d="M13.9,3.2c0.6-0.6,0.6-1.4,0-2l-0.4-0.4c-0.6-0.6-1.5-0.6-2.1,0L7.4,4.5L9.9,7L13.9,3.2z"/>
		<path class="st0" d="M19.6,6.6l-0.4-0.4c-0.6-0.6-1.5-0.6-2.1,0L13.1,10l2.5,2.4l3.9-3.8C20.1,8.1,20.1,7.2,19.6,6.6z"/>
	</g>
</g>
<path class="st1" d="M10,11c0-1.4-0.6-2-2-2H7H5v5.3V16h1v-3c1.5,0,3,2,3,3h1c0,0-0.5-1.8-1.8-3C9.5,12.9,10,12.3,10,11z M6,10h2
	c0.5,0,1,0,1,1s-0.5,1-1,1H6V10z"/>
</svg>
