<?xml version="1.0" encoding="utf-8"?>
<!-- Generator: Adobe Illustrator 21.1.0, SVG Export Plug-In . SVG Version: 6.00 Build 0)  -->
<svg version="1.1" id="Layer_1" xmlns="http://www.w3.org/2000/svg" xmlns:xlink="http://www.w3.org/1999/xlink" x="0px" y="0px"
	 viewBox="0 0 18 18" style="enable-background:new 0 0 18 18;" xml:space="preserve">
<style type="text/css">
	.st0{fill:#444444;}
</style>
<g>
	<path class="st0" d="M14.4,11.9L11.1,10c-0.2,0-0.4,0-0.5,0L10,10.7V6c0-1-2-2-2,0v7.8L5,13c-0.1,0-0.1,0-0.2,0
		c-0.2,0-0.5,0.3-0.6,0.4L3.7,14l3.8,3.7C7.7,18,8,18,8.3,18h5.3c0.6,0,0.9-0.2,0.9-0.8l0.4-4c0-0.1,0-0.1,0-0.1
		C15,12.6,14.9,12.2,14.4,11.9z"/>
	<polygon class="st0" points="3,2 5,2 5,0 1,0 1,4 3,4 	"/>
	<polygon class="st0" points="5,10 3,10 3,8 1,8 1,12 5,12 	"/>
	<polygon class="st0" points="15,4 17,4 17,0 13,0 13,2 15,2 	"/>
</g>
</svg>
