<?xml version="1.0" encoding="utf-8"?>
<!-- Generator: Adobe Illustrator 21.1.0, SVG Export Plug-In . SVG Version: 6.00 Build 0)  -->
<svg version="1.1" id="Layer_1" xmlns="http://www.w3.org/2000/svg" xmlns:xlink="http://www.w3.org/1999/xlink" x="0px" y="0px"
	 viewBox="0 0 18 18" style="enable-background:new 0 0 18 18;" xml:space="preserve">
<style type="text/css">
	.st0{fill:#444444;}
</style>
<g>
	<polygon class="st0" points="3,2 5,2 5,0 1,0 1,4 3,4 	"/>
	<polygon class="st0" points="5,10 3,10 3,8 1,8 1,12 5,12 	"/>
	<polygon class="st0" points="15,4 17,4 17,0 13,0 13,2 15,2 	"/>
	<path class="st0" d="M11.5,12.6C11.3,12.7,8,14.9,8,15.1C8,11.4,8,7.7,8,4c0,0,8.6,7.6,8.7,7.7c-1.3,0.1-2.5,0.2-3.9,0.4
		c0.1,0.1,2,4.6,2.2,4.8c0.1,0.1-1,0.4-1.4,0.7C13.7,17.4,11.5,12.6,11.5,12.6z"/>
</g>
</svg>
