<?xml version="1.0" encoding="utf-8"?>
<!-- Generator: Adobe Illustrator 19.2.0, SVG Export Plug-In . SVG Version: 6.00 Build 0)  -->
<svg version="1.1" id="Layer_1" xmlns="http://www.w3.org/2000/svg" xmlns:xlink="http://www.w3.org/1999/xlink" x="0px" y="0px"
	 width="23px" height="17px" viewBox="0 0 23 17" style="enable-background:new 0 0 23 17;" xml:space="preserve">
<style type="text/css">
	.st0{fill:#00247D;}
	.st1{opacity:0.54;}
	.st2{fill:#424242;}
	.st3{fill:#FFFFFF;}
	.st4{fill:#CF0F14;}
</style>
<g id="BG">
</g>
<g id="Icons">
	<g>
		<rect x="1" y="1" class="st0" width="21" height="15"/>
	</g>
	<g id="ui_x5F_buttonCircle_x5F_light">
	</g>
	<g id="ic_x5F_directionsCar" class="st1">
	</g>
	<g>
		<path class="st2" d="M22,1v15H1V1H22 M23,0H0v17h23V0L23,0z"/>
	</g>
	<g>
		<polygon class="st3" points="22,1 20.2,1 14,5.1 14,1 9,1 9,5.1 2.8,1 1,1 1,3.4 5,6 1,6 1,11 5,11 1,13.6 1,16 2.8,16 9,11.9 
			9,16 14,16 14,11.9 20.2,16 22,16 22,13.6 18,11 22,11 22,6 18,6 22,3.4 		"/>
		<g>
			<polygon class="st4" points="22,7 13,7 13,1 10,1 10,7 1,7 1,10 10,10 10,16 13,16 13,10 22,10 			"/>
			<polygon class="st4" points="1,1.6 1,2.8 5.9,6 7.7,6 			"/>
			<polygon class="st4" points="21.5,1 22,1 22,1.9 15.8,6 14,6 			"/>
			<polygon class="st4" points="1.5,16 1,16 1,15.1 7.2,11 9,11 			"/>
			<polygon class="st4" points="22,15.4 22,14.2 17.1,11 15.3,11 			"/>
		</g>
	</g>
</g>
<g id="Beschriftung">
</g>
</svg>
