<svg width="18" height="18" viewBox="0 0 18 18" fill="none" xmlns="http://www.w3.org/2000/svg">
<path d="M10.3851 15.8723C10.4807 15.7761 10.567 15.6711 10.6429 15.5566C10.9079 15.1567 10.978 14.7432 10.9948 14.4175C10.9997 14.3224 11 13.1932 10.9992 12.5C10.9992 12.0037 10.9979 11.7592 10.9955 11.6926C10.9828 11.3363 10.9078 10.9657 10.7094 10.599C10.5298 10.2669 10.2765 9.98896 9.97363 9.74341C10.3933 9.54278 10.8971 9.32543 11.5 9.08198C11.6893 8.94573 11.6893 8.91419 11.6893 8.55639C11.6893 7.97762 11.5 7.85335 11.5 7.85335C10.6999 6.96414 10.5145 6.56647 10.3229 5.18961C10.1313 3.81268 10.9252 2 12.9998 2C15.0743 2 15.8683 3.81268 15.6767 5.18961C15.4851 6.56647 15.2996 6.96414 14.4995 7.85335C14.4995 7.85335 14.3102 7.97762 14.3102 8.55639C14.3102 8.91419 14.3102 8.94573 14.4995 9.08198C17.3036 10.2142 17.9627 10.782 17.9964 11.7282C17.998 11.7718 17.9995 12.2155 17.9995 12.7272C18.0003 13.4493 17.9995 14.3067 17.9964 14.366C17.9497 15.2733 17.3634 16 12.9998 16C11.9091 16 11.0544 15.9546 10.3851 15.8723Z" fill="#FBBA9D"/>
<path d="M2.32311 5.18961C2.13152 3.81268 2.92547 2 5 2C7.07453 2 7.86848 3.81268 7.67689 5.18961C7.4853 6.56647 7.29984 6.96414 6.49976 7.85335C6.49976 7.85335 6.31047 7.97762 6.31047 8.55639C6.31047 8.91419 6.31047 8.94573 6.49976 9.08198C9.30387 10.2142 9.96294 10.782 9.99666 11.7282C9.99819 11.7718 9.99972 12.2155 9.99972 12.7272C10.0005 13.4493 9.99972 14.3067 9.99666 14.366C9.94991 15.2733 9.36365 16 5 16C0.636354 16 0.0500897 15.2733 0.00334184 14.366C0.00027641 14.3057 -0.000489949 13.4204 0.00027641 12.6911C0.00027641 12.1948 0.00180913 11.7708 0.00334184 11.7282C0.0370616 10.782 0.69613 10.2142 3.50024 9.08198C3.68953 8.94573 3.68953 8.91419 3.68953 8.55639C3.68953 7.97762 3.50024 7.85335 3.50024 7.85335C2.70016 6.96414 2.5147 6.56647 2.32311 5.18961Z" fill="#FE5000"/>
</svg>
